<?xml version="1.0" standalone="no"?>
<!DOCTYPE svg PUBLIC "-//W3C//DTD SVG 20010904//EN"
 "http://www.w3.org/TR/2001/REC-SVG-20010904/DTD/svg10.dtd">
<svg version="1.0" xmlns="http://www.w3.org/2000/svg"
 width="1280.000000pt" height="526.000000pt" viewBox="0 0 1280.000000 526.000000"
 preserveAspectRatio="xMidYMid meet">
<metadata>
Created by potrace 1.16, written by Peter Selinger 2001-2019
</metadata>
<g transform="translate(0.000000,526.000000) scale(0.100000,-0.100000)"
fill="#000000" stroke="none">
<path d="M4835 3145 c-126 -22 -240 -97 -281 -184 -23 -48 -30 -140 -13 -199
9 -34 28 -62 68 -103 48 -47 68 -59 136 -81 120 -40 217 -48 562 -48 196 0
322 -4 340 -11 104 -39 94 -131 -17 -159 -30 -7 -138 -10 -316 -8 -238 3 -273
5 -297 21 -15 9 -27 26 -27 37 0 19 -8 20 -222 21 -123 0 -231 2 -240 4 -15 3
-18 -5 -18 -46 0 -126 100 -223 272 -264 94 -22 1047 -22 1133 0 114 30 219
107 260 190 29 59 28 194 -2 251 -26 49 -98 115 -156 143 -92 44 -147 51 -427
52 -400 1 -553 10 -579 33 -28 25 -28 77 0 102 19 18 42 19 293 22 149 2 286
0 305 -3 18 -4 44 -17 58 -31 l24 -24 241 0 241 0 -6 41 c-16 122 -151 222
-335 249 -102 15 -911 11 -997 -5z"/>
<path d="M8995 3154 c-108 -21 -137 -30 -186 -55 -31 -15 -71 -40 -89 -55 -37
-32 -80 -115 -80 -156 l0 -28 240 0 239 0 24 24 c14 14 40 27 58 31 19 3 148
5 286 3 311 -4 289 8 295 -160 4 -109 -1 -142 -16 -103 -3 9 -35 29 -70 46
-54 25 -84 32 -183 39 -152 12 -454 12 -563 0 -168 -18 -287 -80 -344 -180
-28 -49 -31 -64 -31 -135 0 -92 20 -140 82 -200 44 -43 137 -89 211 -104 32
-7 168 -11 340 -11 324 0 367 6 492 68 41 20 78 39 83 40 4 2 7 -19 7 -47 l0
-50 243 2 242 2 3 370 c1 236 -2 389 -8 422 -15 70 -79 141 -164 183 -109 54
-172 59 -656 58 -239 0 -444 -2 -455 -4z m726 -631 c77 -30 86 -122 15 -161
-27 -15 -69 -17 -311 -20 -154 -2 -299 -1 -323 3 -62 9 -97 43 -97 93 0 47 24
78 69 91 17 5 160 10 318 10 246 1 294 -1 329 -16z"/>
<path d="M1572 2633 l3 -508 243 -3 242 -2 0 205 0 205 48 0 47 0 217 -205
218 -205 316 0 c252 0 314 3 306 13 -6 6 -150 129 -321 272 -170 143 -309 263
-308 267 1 4 130 109 287 235 l285 228 -318 3 -318 2 -182 -164 c-181 -164
-182 -165 -229 -166 l-48 0 0 165 0 165 -245 0 -245 0 2 -507z"/>
<path d="M3582 2633 l3 -508 243 -3 242 -2 0 510 0 510 -245 0 -245 0 2 -507z"/>
<path d="M6650 2630 l0 -509 243 2 242 2 3 203 2 202 45 0 c45 0 46 -1 262
-205 l218 -205 313 1 c172 0 312 4 310 9 -2 4 -91 81 -198 171 -108 90 -250
211 -318 268 l-122 103 288 230 c158 126 289 232 291 234 2 2 -139 4 -315 4
l-319 0 -184 -165 c-178 -160 -186 -165 -228 -165 l-43 0 0 165 0 165 -245 0
-245 0 0 -510z"/>
<path d="M10720 2330 l0 -200 250 0 250 0 0 200 0 200 -250 0 -250 0 0 -200z"/>
</g>
</svg>
